<svg width="54" height="65" viewBox="0 0 54 65" fill="none" xmlns="http://www.w3.org/2000/svg">
<g clip-path="url(#clip0_2265_11470)">
<path d="M36.1235 1.068C36.0009 1.67866 36.2781 2.37392 38.6579 3.70099C38.7379 3.74593 38.8178 3.79087 38.8978 3.83317L39.0443 5.59907L38.8684 5.48804C38.7965 5.4431 38.7005 5.46425 38.6552 5.53563L38.5566 5.68895C38.5113 5.76033 38.5327 5.8555 38.6046 5.90044L39.095 6.20445L39.2415 7.98886L39.1323 7.92012C39.0603 7.87518 38.9644 7.89633 38.9191 7.96771L38.8205 8.12103C38.7752 8.19241 38.7965 8.28758 38.8684 8.33252L39.2895 8.59423L39.4068 10.0244L40.4301 10.6615L41.1763 5.04392C42.4635 5.71275 43.7293 6.34985 44.6167 6.79132L44.7127 8.64975L45.3923 9.07272L45.8693 7.28302L46.4422 7.41256L46.0771 6.95522L47.4949 5.7524L46.8153 5.32943L45.0858 6.05112C44.2996 5.45103 43.1723 4.59452 42.0051 3.73536L46.7807 0.626525L45.7627 0L44.4115 0.515495L43.9905 0.253782C43.9185 0.208842 43.8226 0.22999 43.7773 0.301367L43.6787 0.454693C43.6334 0.52607 43.6547 0.621238 43.7267 0.666179L43.8359 0.734911L42.1517 1.3773L41.6613 1.07329C41.5894 1.02835 41.4934 1.0495 41.4481 1.12087L41.3495 1.2742C41.3042 1.34558 41.3255 1.44074 41.3975 1.48568L41.5734 1.59671L39.9051 2.23381C39.8305 2.18094 39.7532 2.12807 39.6786 2.07784C37.44 0.52607 36.6885 0.584228 36.1875 0.956971C36.1582 0.98605 36.1315 1.0257 36.1235 1.068Z" fill="#2595FF"/>
<path d="M48.5502 12.7551C48.4915 14.5844 47.8493 16.5037 46.4582 18.148C43.4868 21.6692 36.8057 24.6855 26.0766 28.479C14.6653 32.5105 2.57701 36.6661 1.88679 45.1203C0.674234 42.0722 0 38.7546 0 35.2809C0 20.4875 12.0909 8.49365 26.9987 8.49365C27.537 8.49365 28.0646 8.51216 28.5923 8.54124C35.2947 8.92984 41.3361 11.7452 45.8479 16.1098C46.9059 15.4066 48.0838 14.3095 48.5502 12.7551Z" fill="#DB7112"/>
<path d="M21.5484 65.0001C3.30681 55.663 11.4083 44.0762 29.6765 35.979C10.3396 48.2399 15.1978 58.6476 21.5484 65.0001Z" fill="#FF8619"/>
<path d="M43.7399 23.6016C43.58 23.739 43.4121 23.8712 43.2415 24.006C32.587 32.78 18.183 36.1109 10.7477 44.4514C4.99943 50.9017 6.92353 55.4037 7.90156 57.1273C2.2332 52.2314 2.42508 44.2875 11.2674 38.8629C20.1097 33.4462 31.5291 30.7313 43.7399 23.6016Z" fill="#2595FF"/>
<path d="M48.5502 12.7551C48.4915 14.5844 47.8493 16.5037 46.4582 18.148C43.4868 21.6692 36.8057 24.6855 26.0766 28.479C14.6653 32.5105 2.57701 36.6661 1.88679 45.1203C0.674234 42.0722 0 38.7546 0 35.2809C0 20.4875 12.0909 8.49365 26.9987 8.49365C27.537 8.49365 28.0646 8.51216 28.5923 8.54124C16.4614 8.56239 4.80758 20.0143 6.00415 31.49C9.29004 21.7009 33.5331 23.0386 45.8479 16.1098C46.9059 15.4066 48.0838 14.3095 48.5502 12.7551Z" fill="#FF8619"/>
<path d="M51.6621 24.3817C54.1938 17.4899 52.2537 11.2511 47.2516 8.12109C57.533 19.9325 39.5579 30.676 26.1585 41.7182C19.187 47.4626 18.001 56.9901 25.2311 60.6487C27.435 61.7643 29.9827 62.0155 32.4078 61.5238C44.7252 59.0388 53.9966 48.2346 53.9966 35.2811C53.9993 31.3977 53.1625 27.7099 51.6621 24.3817Z" fill="#2595FF"/>
<path d="M51.6622 24.3818C47.8193 33.5603 29.6576 45.5859 27.5203 50.0403C24.2318 56.8977 33.2473 59.7131 40.2721 54.5396C26.9527 53.7519 51.4783 42.6938 53.8607 32.569" fill="#238AED"/>
<path d="M21.5491 65.0001C5.82318 52.7022 15.1212 44.6023 29.6772 35.979C10.3403 48.2399 15.1985 58.6476 21.5491 65.0001Z" fill="#DB7112"/>
<path d="M43.2418 24.0088C32.5873 32.7801 18.1832 36.111 10.748 44.4515C4.99966 50.9018 6.92376 55.4038 7.90179 57.1274C-4.29571 39.3045 30.7565 33.8719 43.2418 24.0088Z" fill="#238AED"/>
</g>
<defs>
<clipPath id="clip0_2265_11470">
<rect width="54" height="65" fill="white"/>
</clipPath>
</defs>
</svg>
