<svg width="308" height="110" viewBox="0 0 308 110" fill="none" xmlns="http://www.w3.org/2000/svg">
<g clip-path="url(#clip0_1888_3017)">
<path fill-rule="evenodd" clip-rule="evenodd" d="M20.9805 33.5038L45.8438 18.6917C49.5498 16.4915 53.9847 15.8368 58.1768 16.871C62.369 17.9053 65.9766 20.5441 68.2095 24.2095L95.6983 69.5345C97.9099 73.2052 98.5662 77.5942 97.5239 81.7429C96.4815 85.8917 93.8251 89.4631 90.1349 91.6773L65.2717 106.485C61.5679 108.677 57.1395 109.328 52.9535 108.295C48.7675 107.262 45.1641 104.629 42.93 100.972L15.4251 55.6426C13.214 51.9732 12.5572 47.5859 13.598 43.4382C14.6388 39.2905 17.2927 35.7193 20.9805 33.5038Z" fill="#303030"/>
<path fill-rule="evenodd" clip-rule="evenodd" d="M63.5705 18.3823L88.1135 32.3138C95.6861 36.6138 97.4912 46.2214 93.1526 54.2463L67.3328 102.035C64.9313 106.481 59.3279 109.266 54.3448 109.877C50.3424 110.365 46.6801 109.437 42.0293 106.799L17.4863 92.8633C9.91362 88.5633 7.64423 78.6938 12.4472 70.9308L41.0647 24.6737C45.8676 16.9106 55.9938 14.0783 63.5705 18.3823Z" fill="white"/>
<path fill-rule="evenodd" clip-rule="evenodd" d="M63.6913 18.3823L89.0629 32.3138C92.8326 34.3941 95.6181 37.8689 96.8106 41.9787C98.0031 46.0885 97.5055 50.499 95.4267 54.2463L69.5509 100.503C67.4498 104.238 63.9429 106.996 59.7964 108.175C55.6499 109.355 51.2009 108.86 47.4214 106.799L22.0498 92.8633C18.2843 90.781 15.5029 87.3067 14.3128 83.199C13.1227 79.0913 13.6207 74.6838 15.6979 70.9387L41.5618 24.6816C43.6614 20.946 47.168 18.1862 51.3149 17.0058C55.4618 15.8254 59.9116 16.3203 63.6913 18.3823Z" fill="#E25C27"/>
<path fill-rule="evenodd" clip-rule="evenodd" d="M82.0017 81.9665L68.7656 101.785L79.1 83.3667L82.0017 81.9665Z" fill="white"/>
<path fill-rule="evenodd" clip-rule="evenodd" d="M68.7426 37.9585C69.4447 37.9585 70.1311 37.7522 70.7149 37.3655C71.2988 36.9789 71.7538 36.4294 72.0225 35.7865C72.2912 35.1435 72.3615 34.4361 72.2245 33.7535C72.0875 33.071 71.7494 32.444 71.2529 31.952C70.7564 31.4599 70.1238 31.1248 69.4352 30.989C68.7465 30.8532 68.0327 30.9229 67.384 31.1892C66.7353 31.4555 66.1808 31.9065 65.7907 32.4851C65.4006 33.0638 65.1924 33.7441 65.1924 34.44C65.1945 35.3725 65.5692 36.2662 66.2345 36.9256C66.8999 37.5851 67.8016 37.9564 68.7426 37.9585Z" fill="white"/>
<path fill-rule="evenodd" clip-rule="evenodd" d="M61.9375 17.5491C62.1857 16.6843 62.5339 15.5022 62.818 14.7723C63.1436 13.9419 63.5185 13.1102 63.9427 12.2772C66.3162 7.62015 69.7223 4.01828 73.3125 1.96346C77.0468 -0.17862 80.9972 -0.682408 84.2872 0.963823C87.5772 2.61005 89.5144 6.06119 89.9867 10.3097C90.443 14.3955 89.5384 19.2509 87.1649 23.9079C84.9916 28.1723 81.9618 31.556 78.6878 33.6782C75.2817 35.8957 71.6194 36.7525 68.4095 35.8401C68.1466 35.7486 67.9289 35.561 67.801 35.3157C67.6731 35.0704 67.6445 34.7859 67.7212 34.5204C67.7979 34.2549 67.974 34.0285 68.2135 33.8874C68.4531 33.7464 68.7379 33.7013 69.0098 33.7615C71.5874 34.4914 74.6133 33.7615 77.491 31.8773C80.4448 29.9534 83.2185 26.8592 85.2198 22.9321C87.3971 18.6598 88.2296 14.2408 87.8173 10.5477C87.4171 7.0172 85.8882 4.20075 83.3026 2.8917C80.717 1.58265 77.507 2.05073 74.4051 3.83184C71.1632 5.69624 68.0693 8.98871 65.8919 13.253C65.505 14.02 65.1568 14.7908 64.8473 15.5657C64.7312 15.8632 64.6191 16.1568 64.5151 16.4543C64.411 16.7518 64.1148 17.799 63.9347 18.5011L63.6906 18.3702C63.1228 18.0631 62.5374 17.7889 61.9375 17.5491Z" fill="#303030"/>
<path fill-rule="evenodd" clip-rule="evenodd" d="M67.9937 36.1457C74.2815 36.5741 79.1765 34.3646 83.3191 29.656C86.6371 25.8796 87.9859 22.4522 89.3948 17.9737C88.2381 24.388 85.5444 29.4061 80.9096 33.1904C76.8551 36.5027 73.0128 37.6174 67.8096 37.3556L67.9937 36.1457Z" fill="white"/>
<path fill-rule="evenodd" clip-rule="evenodd" d="M17.7784 80.1893C4.08604 82.1728 -7.43702 85.128 10.1738 87.6866C27.7845 90.2452 49.8941 95.5449 58.8596 91.8121L94.5414 76.9603C97.5353 75.7108 96.9949 74.1836 93.937 73.5647C89.3542 72.6325 84.067 71.6805 83.2065 71.6329C83.1985 71.6329 20.8163 77.7894 17.7784 80.1893Z" fill="#303030"/>
<path fill-rule="evenodd" clip-rule="evenodd" d="M57.3032 68.031L51.0273 67.6581C47.9134 67.4717 45.1077 72.0216 44.7675 77.8092C44.4273 83.5968 46.6726 88.4443 49.7906 88.6307L56.0664 89.0076C59.1803 89.19 61.986 84.6441 62.3262 78.8565C62.6664 73.0689 60.4211 68.2174 57.3032 68.031Z" fill="#303030"/>
<path fill-rule="evenodd" clip-rule="evenodd" d="M88.1578 63.2748L84.7197 63.0685C83.0106 62.9694 81.4737 66.1547 81.2856 70.185C81.0974 74.2153 82.3302 77.5673 84.0392 77.6704L87.4813 77.8727C89.1904 77.9759 90.7233 74.7905 90.9115 70.7602C91.0996 66.7299 89.8668 63.3779 88.1578 63.2748Z" fill="#303030"/>
<path fill-rule="evenodd" clip-rule="evenodd" d="M19.1881 70.3635L15.746 69.6138C14.0369 69.2449 12.5 72.1883 12.3119 76.1908C12.1238 80.1933 13.3605 83.7278 15.0656 84.1244L18.5077 84.8702C20.2167 85.2391 21.7537 82.2957 21.9418 78.2972C22.1299 74.2986 20.8971 70.7324 19.1881 70.3635Z" fill="#303030"/>
<path fill-rule="evenodd" clip-rule="evenodd" d="M0.536722 74.8103C0.368619 72.9023 0.30058 70.542 0.776871 68.8125C1.14779 67.5046 1.79136 66.2884 2.66603 65.2423C2.79727 64.0948 3.06599 62.9669 3.46652 61.8824C3.88069 60.5778 4.66421 59.4185 5.7239 58.5424C6.35076 58.1167 7.03176 57.7752 7.74914 57.5269C8.62968 57.1778 9.52623 56.8644 10.4268 56.555C12.8282 55.7339 15.2297 54.9683 17.6312 54.2265C20.7691 53.2559 23.9137 52.3078 27.065 51.3822C35.5422 44.4958 41.4938 41.9452 52.6806 41.8262C61.3259 41.731 73.2692 42.4212 80.7298 47.0663C83.0319 48.4601 85.129 50.1621 86.9616 52.124C87.4968 52.6811 88.0883 53.1822 88.7267 53.6195C89.4352 54.1273 90.1716 54.5954 90.9201 55.0397C91.3403 55.2856 91.7726 55.5434 92.2169 55.7537C93.8899 56.547 94.2741 58.2686 94.5263 59.9109C94.7224 61.1684 94.8384 62.4378 94.9465 63.7072C95.0866 65.3415 94.9905 67.0076 95.1867 68.6657C95.5869 72.2358 93.8378 73.4655 90.9761 73.529L90.3477 63.4017V61.093L8.1734 67.0869C5.22359 66.4244 4.87938 79.1778 4.36306 79.6895C0.232535 79.4435 -0.54394 76.3177 0.536722 74.8103Z" fill="white"/>
<path fill-rule="evenodd" clip-rule="evenodd" d="M27.8488 52.8539C36.0418 46.154 41.6052 43.5755 52.7 43.4565C60.801 43.3732 72.6802 43.9802 79.8646 48.4508C82.027 49.7713 84.0016 51.3722 85.7362 53.211C86.3492 53.8595 87.0308 54.4407 87.7695 54.9445C88.5139 55.48 89.2944 55.9798 90.0869 56.4479C90.5392 56.7137 91.0395 57.0072 91.5118 57.2413C92.5644 57.7371 92.7565 59.185 92.9086 60.1767C93.0967 61.3945 93.2128 62.6361 93.3089 63.8619C93.4009 64.9845 93.481 66.1071 93.557 67.2297C93.601 67.8446 93.6251 68.4991 93.6971 69.11C93.8072 70.0823 93.5769 71.0626 93.0447 71.8868L92.9406 72.0296L89.0863 75.1634V68.8759C89.0979 67.9685 89.0175 67.0621 88.8461 66.1706C88.7683 65.7892 88.6432 65.4188 88.4739 65.0678C88.4145 65.0957 88.357 65.1275 88.3018 65.163C87.5974 65.6033 87.005 68.1341 86.8409 68.9275C86.5095 70.6388 86.3022 72.3715 86.2205 74.1122L86.1725 75.0206L60.7009 83.6563L60.9771 81.2762C61.2973 78.5352 61.4934 73.2712 60.4407 70.6372C60.1326 69.8716 59.5842 69.0505 58.7597 68.7728C56.9026 68.154 55.1575 70.5222 54.4131 71.7995C53.8836 72.7783 53.4802 73.8192 53.2123 74.8976C52.6915 77.0551 52.4004 79.2608 52.3438 81.4785C52.3038 82.3195 52.2838 83.1684 52.2277 84.0054C52.1797 84.6996 52.1196 85.5366 51.6233 86.0523C50.4907 87.2146 46.2881 87.1194 44.7591 87.0876C42.2176 87.0361 39.648 86.8179 37.1065 86.5402C33.2681 86.1237 29.4298 85.5485 25.6114 84.894C22.1813 84.3069 4.6626 81.3516 1.99697 78.5471C0.940323 77.4363 1.4086 76.167 2.26113 75.2982C2.061 73.3902 1.94893 70.7959 2.3852 69.2131C2.74309 67.9651 3.40094 66.8218 4.30238 65.881C4.37088 64.7019 4.61362 63.5391 5.02282 62.4299C5.33634 61.4225 5.9284 60.5224 6.73186 59.8316C7.24573 59.5045 7.79649 59.2383 8.37287 59.0382C9.22939 58.701 10.1019 58.3916 10.9785 58.0941C13.3479 57.3008 15.7494 56.5074 18.1469 55.7815C21.3702 54.7792 24.6041 53.8033 27.8488 52.8539Z" fill="#303030"/>
<path fill-rule="evenodd" clip-rule="evenodd" d="M28.5851 54.1472C23.9583 55.5038 8.99712 59.9546 7.60026 61.0018C6.20341 62.0491 5.6991 65.3653 5.6991 65.9762V66.6069C4.74704 67.4175 4.06242 68.4926 3.73389 69.6931C3.18156 71.7043 3.73389 75.9766 3.73389 75.9766C3.73389 75.9766 2.30902 76.9286 2.97342 77.6268C3.63783 78.3249 7.6643 80.4036 25.7314 83.5056C43.7984 86.6077 49.8861 85.7032 50.5185 85.0487C51.1509 84.3942 50.2023 76.2344 53.1161 71.0657C56.0299 65.8969 60.2165 66.4007 61.7374 70.2009C63.2583 74.0011 62.3738 81.546 62.3738 81.546L84.7515 73.9575C84.7515 73.9575 84.2832 70.1295 84.9516 66.9441C85.2598 65.4566 86.1163 63.7389 86.8448 63.2827C88.2296 62.41 90.2309 63.2827 90.7792 64.6037C91.8238 67.1187 91.5597 68.8403 91.5797 71.2997L91.8558 71.022C92.1974 70.4703 92.3386 69.8195 92.2561 69.1774C92.128 68.0866 91.6997 58.8637 90.9393 58.5107C90.1788 58.1576 86.3765 56.0393 84.6634 54.1154C82.1716 51.5234 79.2051 49.4247 75.9221 47.9311C70.4747 45.4717 58.4554 44.841 52.8039 44.9005C42.1094 44.9997 36.8422 47.3679 28.5851 54.1472Z" fill="#E25C27"/>
<path fill-rule="evenodd" clip-rule="evenodd" d="M10.1106 64.5402C9.95446 64.7068 9.77435 65.7025 9.76635 66.9203C9.76766 67.1792 9.85799 67.43 10.0224 67.6312C10.1869 67.8324 10.4156 67.972 10.6709 68.0271C15.3578 69.2726 24.0791 70.3834 29.5385 70.8594C30.5111 70.9466 31.4516 71.1331 31.9079 70.1691C32.3642 69.2052 32.4002 68.396 31.8319 67.8486C31.4316 67.4519 24.6274 66.6585 19.024 65.8651C14.061 65.1789 10.1786 64.4926 10.1266 64.5482L10.1106 64.5402ZM9.61426 68.3444C9.61426 68.2413 13.8048 70.0422 19.8005 70.6095C22.234 70.8435 27.0729 71.6884 30.2429 71.4742C31.3235 71.3989 31.3155 71.3235 30.5431 72.2676C28.6779 74.5406 26.6847 74.6477 22.282 74.2074C17.5351 73.7234 14.3732 73.0173 11.6955 72.0415C10.4748 71.5972 9.81038 69.8716 9.61426 68.3444Z" fill="#B73B15"/>
<path fill-rule="evenodd" clip-rule="evenodd" d="M3.56648 70.7364C3.46616 72.4849 3.52644 74.2389 3.74659 75.9766C3.74659 75.9766 2.32171 76.9286 2.98612 77.6268C3.65053 78.3249 7.67699 80.4035 25.7441 83.5056C43.8111 86.6076 49.8988 85.7032 50.5312 85.0487C51.1636 84.3942 50.215 76.2344 53.1288 71.0656C56.0426 65.8969 60.2292 66.4006 61.7501 70.2009C63.271 74.0011 62.3865 81.546 62.3865 81.546L84.7642 73.9574C84.7642 73.9574 84.524 65.2979 86.8575 63.9452C89.1909 62.5925 90.2235 64.3815 90.7919 66.4482C91.4523 68.8601 91.0921 71.8868 91.1521 71.8193L91.8645 71.026C92.2061 70.4743 92.3473 69.8235 92.2648 69.1814C92.1647 68.3127 91.8645 62.291 91.3722 59.6927C91.2732 60.1478 91.1394 60.5947 90.972 61.0296C90.4637 62.3188 83.2353 62.8305 83.2353 62.8305L61.9342 67.7176C61.9342 67.7176 60.4773 65.3693 57.6876 65.643C54.8979 65.9167 52.9327 70.07 51.2837 73.1799C49.9829 75.6275 46.4447 77.0436 44.1914 77.361C46.5168 79.0389 48.522 83.9142 47.3493 84.2117C46.1766 84.5092 39.1082 83.9062 38.5439 83.2438C37.9796 82.5813 37.2111 78.0869 36.8308 77.9282C36.4506 77.7696 30.8712 77.1349 30.8712 77.1349C32.2654 76.8311 33.6749 76.6007 35.0938 76.4446C32.24 76.4922 29.6625 76.766 29.2902 76.9564C28.5258 77.3531 25.3598 76.7223 25.3598 76.7223C25.3598 76.7223 9.318 74.4454 8.4935 73.8305C7.66899 73.2156 4.64314 71.1688 3.56648 70.7364Z" fill="#B73B15"/>
<path fill-rule="evenodd" clip-rule="evenodd" d="M3.6544 70.1057C3.25415 72.2319 3.4943 75.6909 3.4943 75.6909C3.57435 76.044 4.34282 76.397 4.85513 76.5081C5.36745 76.6192 5.91979 76.7779 6.05587 76.3812C6.38988 75.4527 6.61418 74.4889 6.72428 73.5092C6.86436 72.2676 6.77631 71.9423 3.6544 70.1057Z" fill="#303030"/>
<path fill-rule="evenodd" clip-rule="evenodd" d="M7.61305 61.0216C6.2202 62.0689 5.71189 65.3851 5.71189 65.996V66.6268L5.63184 66.6902C6.40575 67.2316 7.22067 67.7131 8.06933 68.1302C8.11428 68.1488 8.16272 68.1576 8.2114 68.156C8.26008 68.1545 8.30785 68.1426 8.35149 68.1211C8.39513 68.0997 8.43361 68.0692 8.46434 68.0318C8.49507 67.9943 8.51733 67.9508 8.52961 67.9041C8.64568 66.8211 8.54963 64.7861 8.54963 64.4728C8.54963 64.2189 8.0133 60.7003 7.61305 61.0216Z" fill="#303030"/>
<path fill-rule="evenodd" clip-rule="evenodd" d="M42.3776 46.1461C37.6147 47.4789 33.6763 49.974 28.6172 54.1313L62.4979 57.1262C62.4979 57.1262 66.4563 47.6376 66.1722 47.233C65.888 46.8284 49.618 46.3444 42.3776 46.1461Z" fill="#303030"/>
<path fill-rule="evenodd" clip-rule="evenodd" d="M31.7879 51.3703C30.299 50.4302 28.1416 50.6484 27.4132 53.1515C26.6848 55.6545 29.7546 53.6354 31.7879 51.3703Z" fill="#303030"/>
<path fill-rule="evenodd" clip-rule="evenodd" d="M38.091 66.7299C35.2893 68.5745 31.8792 72.3906 34.8571 72.1922C37.8349 71.9939 46.3961 71.6845 47.9811 70.0859C49.5661 68.4872 51.7834 65.0321 50.3265 64.7584C48.8696 64.4847 41.1329 65.7818 38.091 66.7299Z" fill="#303030"/>
<path fill-rule="evenodd" clip-rule="evenodd" d="M9.77428 63.965C9.61018 64.1356 9.42207 65.1313 9.41406 66.3451C9.4195 66.608 9.51591 66.861 9.68715 67.0617C9.85839 67.2625 10.094 67.3988 10.3546 67.4479C15.2376 68.6935 24.3232 69.8042 30.0107 70.2842C31.0233 70.3675 32.0119 70.5579 32.4802 69.594C32.9485 68.63 32.9925 67.8208 32.4001 67.2694C31.9759 66.8727 24.8955 66.0595 19.044 65.286C13.8728 64.5958 9.83832 63.9135 9.77428 63.965ZM9.50612 67.9319C9.50612 67.8247 13.6206 69.4829 19.8685 70.0541C22.402 70.2842 27.4411 71.1331 30.7431 70.9149C31.8678 70.8435 31.8638 70.7681 31.0593 71.7083C29.1141 73.9773 27.0569 74.0884 22.454 73.648C17.507 73.1641 14.3371 72.3509 11.5474 71.383C10.2586 70.9387 9.69023 69.4432 9.4861 67.916L9.50612 67.9319Z" fill="#303030"/>
<path fill-rule="evenodd" clip-rule="evenodd" d="M29.626 77.1269C34.1287 76.1392 40.3405 75.691 42.75 77.2182C45.1595 78.7454 47.3128 83.8983 46.1121 84.2038C44.9113 84.5092 37.867 83.8983 37.3067 83.2359C36.7463 82.5734 35.9739 78.079 35.5936 77.9203C35.2134 77.7616 29.626 77.1269 29.626 77.1269Z" fill="#303030"/>
<path fill-rule="evenodd" clip-rule="evenodd" d="M41.4811 79.0271C39.58 78.9438 38.8075 78.8129 37.1625 78.7613C35.3013 78.7018 32.7198 78.7414 33.4962 79.0548C34.6241 79.3445 35.7739 79.5421 36.9343 79.6459C39.2798 79.8958 41.3931 79.7808 41.4811 79.0271Z" fill="#303030"/>
<path fill-rule="evenodd" clip-rule="evenodd" d="M42.6865 81.2961C38.632 81.1176 33.2407 80.7328 34.7016 81.3238C36.1625 81.9149 42.5625 82.4425 42.6865 81.2961Z" fill="#303030"/>
<path fill-rule="evenodd" clip-rule="evenodd" d="M7.3125 77.3649C8.83343 75.5719 8.96151 74.4493 11.1188 74.7032C13.2761 74.9571 27.2207 77.361 27.2207 77.361C27.2207 77.361 28.9297 77.837 30.4507 79.8125L31.9716 81.7959C31.9716 81.7959 23.0341 81.8832 7.3125 77.3649Z" fill="#303030"/>
<path fill-rule="evenodd" clip-rule="evenodd" d="M64.7155 76.2026L81.2616 70.5936L79.1683 73.6718L64.6074 78.6462L64.7155 76.2026Z" fill="#303030"/>
<path fill-rule="evenodd" clip-rule="evenodd" d="M91.4439 59.8316C86.0887 58.1457 67.1491 61.6087 54.4573 64.3181L53.877 64.3934C59.7766 61.934 83.7833 58.3044 89.4227 57.6895C90.1392 58.11 90.7115 58.4154 90.9597 58.5305C91.0757 58.586 91.1798 58.8359 91.2799 59.2247L91.4439 59.8316Z" fill="#303030"/>
<path fill-rule="evenodd" clip-rule="evenodd" d="M67.9692 49.7043C66.8045 52.731 65.5357 57.6379 65.8559 57.6736C66.1761 57.7093 82.5302 55.2102 82.7823 54.8493C83.3266 54.0559 79.6204 51.414 77.5791 50.2557C75.0708 48.8682 72.3236 47.9561 69.4782 47.5662C68.6617 47.4313 68.4255 48.5182 67.9692 49.7043Z" fill="#303030"/>
<path fill-rule="evenodd" clip-rule="evenodd" d="M69.2179 53.7267C68.3934 53.802 67.5049 54.6311 67.5049 56.9001C67.5049 57.2968 67.5049 57.63 67.5049 57.9037C67.6089 60.8273 70.2025 60.4147 70.0184 57.6776C70.0184 57.6776 74.0809 57.5467 74.6212 57.0469C74.8934 56.793 75.1456 56.4638 74.221 55.4879C73.567 54.8507 72.7803 54.3629 71.9161 54.0587C71.0519 53.7544 70.131 53.6411 69.2179 53.7267Z" fill="#303030"/>
<path fill-rule="evenodd" clip-rule="evenodd" d="M64.7033 75.207L84.3073 69.2687L80.1567 71.9582L64.5752 78.4995L64.7033 75.207Z" fill="#303030"/>
<path fill-rule="evenodd" clip-rule="evenodd" d="M11.1225 59.5777L10.7223 59.9228C9.62158 61.2001 6.98796 63.493 9.88974 63.8897C14.0483 64.4807 21.6049 65.5756 27.3684 66.3412C30.6224 66.7735 32.7437 67.2932 34.749 67.0829C36.478 66.9005 41.6132 65.4129 47.0605 63.6913C53.3403 61.7079 60.0164 59.4389 62.3699 58.5067C64.207 57.7768 62.8302 57.2651 60.8129 56.9199L62.1818 56.6066C62.1818 56.6066 65.2556 57.4634 63.6947 58.6931C63.1544 59.1176 54.9253 61.9816 47.3167 64.3815C41.8293 66.1111 36.6461 67.6105 34.865 67.797C32.5716 68.039 30.8065 67.7137 27.0522 67.1782C21.5609 66.3848 13.7521 65.159 9.84171 64.6037C6.30755 64.0999 8.24074 61.7396 9.58156 60.137C10.0218 59.9665 10.5461 59.7761 11.1225 59.5777Z" fill="#303030"/>
<path fill-rule="evenodd" clip-rule="evenodd" d="M57.6235 70.4508C56.5829 70.3873 55.5743 71.2045 54.7818 72.577C53.8404 74.3565 53.3189 76.3246 53.2569 78.3329C53.2409 78.6158 53.2329 78.9054 53.2329 79.2016C53.194 80.996 53.5449 82.7776 54.2615 84.4259C54.8699 85.7032 55.7024 86.5283 56.6349 86.6315H56.731C57.7716 86.6949 58.7803 85.8738 59.5728 84.5013C60.5143 82.7233 61.0357 80.7564 61.0977 78.7494C61.0977 78.4677 61.1217 78.1742 61.1217 77.8767C61.1608 76.0797 60.81 74.2954 60.0931 72.6444C59.4847 71.3671 58.6522 70.546 57.7196 70.4389L57.6235 70.4508ZM54.1534 72.2002C55.07 70.6134 56.3027 69.6574 57.6235 69.7368H57.7556C58.9564 69.8716 60.013 70.8594 60.7375 72.3787C61.5038 74.1296 61.8792 76.0241 61.8381 77.9322C61.8381 78.2178 61.8381 78.5193 61.8141 78.8406C61.7507 80.9527 61.2032 83.0227 60.2131 84.894C59.2966 86.4807 58.0638 87.4328 56.743 87.3574H56.6109C55.4102 87.2186 54.3536 86.2348 53.6291 84.7155C52.8628 82.9645 52.4873 81.0701 52.5284 79.1619C52.5284 78.8724 52.5284 78.5709 52.5525 78.2535C52.6155 76.1414 53.163 74.0713 54.1534 72.2002Z" fill="white"/>
<path fill-rule="evenodd" clip-rule="evenodd" d="M57.4872 76.3653C57.219 76.3653 56.9468 76.5557 56.7227 76.9008C56.4295 77.3893 56.2657 77.9433 56.2464 78.5114C56.2464 78.5867 56.2464 78.6701 56.2464 78.7613C56.2329 79.2621 56.3414 79.7587 56.5626 80.2092C56.6123 80.3398 56.6927 80.4569 56.7971 80.5507C56.9015 80.6445 57.0269 80.7124 57.163 80.7487H57.191C57.3537 80.7326 57.5096 80.6752 57.6435 80.5821C57.7773 80.489 57.8848 80.3633 57.9555 80.2171C58.2486 79.7272 58.4125 79.1719 58.4318 78.6026C58.4318 78.5273 58.4318 78.4439 58.4318 78.3527C58.4443 77.8524 58.3374 77.3563 58.1196 76.9048C58.0692 76.7743 57.988 76.6575 57.8829 76.5644C57.7778 76.4712 57.6517 76.4043 57.5152 76.3693L57.4872 76.3653ZM56.1143 76.4923C56.2457 76.243 56.4427 76.0336 56.6844 75.8863C56.926 75.7389 57.2034 75.6591 57.4872 75.6553H57.5552C57.8186 75.7033 58.0659 75.815 58.2753 75.9803C58.4848 76.1457 58.6498 76.3597 58.7559 76.6033C59.0284 77.1606 59.1655 77.7732 59.1562 78.3924C59.1562 78.4796 59.1562 78.5748 59.1562 78.6819C59.1294 79.367 58.9284 80.0342 58.5718 80.6217C58.4401 80.8707 58.2431 81.0799 58.0015 81.2272C57.7598 81.3745 57.4826 81.4545 57.199 81.4587H57.131C56.8671 81.4134 56.619 81.3033 56.4092 81.1383C56.1994 80.9734 56.0347 80.759 55.9302 80.5146C55.6556 79.9568 55.5184 79.3423 55.53 78.7216C55.53 78.6383 55.53 78.5391 55.53 78.436C55.5549 77.7494 55.756 77.0804 56.1143 76.4923Z" fill="white"/>
<path fill-rule="evenodd" clip-rule="evenodd" d="M56.7226 76.8096C56.2703 76.7818 55.8701 77.4998 55.822 78.3963C55.774 79.2928 56.1022 80.0703 56.5545 80.0981C57.0068 80.1259 57.407 79.4079 57.4551 78.5114C57.5031 77.6149 57.1749 76.8374 56.7226 76.8096Z" fill="white"/>
<path fill-rule="evenodd" clip-rule="evenodd" d="M56.7227 77.1666C56.6386 77.1666 56.5346 77.2697 56.4345 77.4443C56.2765 77.7578 56.1891 78.1016 56.1783 78.4519C56.1783 78.4915 56.1783 78.5431 56.1783 78.6066C56.1708 78.915 56.228 79.2217 56.3464 79.507C56.4185 79.6578 56.4905 79.749 56.5546 79.7569C56.6346 79.7569 56.7387 79.6538 56.8387 79.4753C56.9988 79.1638 57.0876 78.8211 57.0989 78.4717V78.313C57.1081 78.0057 57.0507 77.7 56.9308 77.4165C56.8628 77.2658 56.7867 77.1706 56.7267 77.1666H56.7227ZM55.8061 77.0714C55.8829 76.892 56.0101 76.7382 56.1726 76.6285C56.3351 76.5187 56.5261 76.4577 56.7227 76.4526H56.7627C56.9452 76.49 57.1148 76.5737 57.2551 76.6953C57.3953 76.8169 57.5015 76.9725 57.5632 77.1468C57.7269 77.5223 57.8088 77.9278 57.8033 78.3368C57.8033 78.3884 57.8033 78.4519 57.8033 78.5312C57.7902 78.9848 57.6739 79.4295 57.4631 79.8323C57.386 80.0115 57.2586 80.165 57.0962 80.2746C56.9338 80.3843 56.743 80.4456 56.5466 80.4511H56.5065C56.3243 80.4144 56.1548 80.3315 56.0145 80.2105C55.8743 80.0896 55.768 79.9347 55.7061 79.7609C55.5457 79.3845 55.4653 78.9794 55.4699 78.5709C55.4699 78.5233 55.4699 78.4598 55.4699 78.3805C55.4862 77.9269 55.6038 77.4825 55.8141 77.0793L55.8061 77.0714Z" fill="white"/>
<path fill-rule="evenodd" clip-rule="evenodd" d="M88.3344 64.9528C87.766 64.921 87.2097 65.4962 86.7774 66.4601C86.253 67.7363 85.9694 69.097 85.9409 70.4746C85.9409 70.6729 85.9409 70.8752 85.9409 71.0815C85.9161 72.3143 86.1057 73.5421 86.5012 74.7111C86.8374 75.5918 87.3017 76.159 87.806 76.2225H87.8581C88.4264 76.2582 88.9828 75.679 89.415 74.7191C89.9289 73.4409 90.2029 72.0804 90.2235 70.7046C90.2235 70.5103 90.2235 70.308 90.2235 70.1017C90.2498 68.8685 90.0589 67.6402 89.6592 66.472C89.327 65.5874 88.8587 65.0202 88.3584 64.9567L88.3344 64.9528ZM86.4332 66.2023C86.9375 65.0837 87.6099 64.4133 88.3344 64.4569H88.4064C89.0748 64.5402 89.6472 65.2185 90.0434 66.2697C90.4666 67.5084 90.671 68.8101 90.6478 70.1176C90.6478 70.3159 90.6478 70.5142 90.6478 70.7483C90.6162 72.1983 90.3164 73.6302 89.7632 74.9729C89.2589 76.0876 88.5865 76.758 87.8621 76.7144H87.79C87.1216 76.6311 86.5493 75.9567 86.153 74.9055C85.7299 73.6669 85.5254 72.3652 85.5487 71.0577C85.5487 70.8594 85.5487 70.661 85.5487 70.427C85.5794 68.9769 85.8793 67.5448 86.4332 66.2023Z" fill="white"/>
<path fill-rule="evenodd" clip-rule="evenodd" d="M88.2576 69.0703C88.1135 69.0703 87.9614 69.2052 87.8573 69.467C87.6941 69.8212 87.6042 70.2043 87.5932 70.5936V70.7681C87.5843 71.1102 87.6413 71.4508 87.7613 71.7717C87.8534 71.9859 87.9694 72.1248 88.0935 72.1406C88.2416 72.1406 88.3897 72.0058 88.4937 71.7638C88.6588 71.4102 88.7487 71.0267 88.7579 70.6372C88.7579 70.5856 88.7579 70.5261 88.7579 70.4627C88.7656 70.1203 88.7072 69.7797 88.5858 69.4591C88.4937 69.2449 88.3777 69.106 88.2536 69.0901L88.2576 69.0703ZM87.5051 69.1695C87.7013 68.7728 87.9654 68.5586 88.2576 68.5745H88.2976C88.5698 68.6102 88.7979 68.8521 88.95 69.2211C89.1037 69.6169 89.1785 70.0386 89.1702 70.4627C89.1702 70.5222 89.1702 70.5896 89.1702 70.665C89.1582 71.1329 89.0492 71.5933 88.85 72.0177C88.6538 72.4143 88.3897 72.6286 88.0975 72.6127H88.0615C87.7893 72.577 87.5612 72.335 87.4051 71.9661C87.2533 71.5697 87.1786 71.1484 87.1849 70.7245C87.1849 70.665 87.1849 70.5975 87.1849 70.5222C87.2013 70.0548 87.31 69.5952 87.5051 69.1695Z" fill="white"/>
<path fill-rule="evenodd" clip-rule="evenodd" d="M87.8419 69.3837C87.5937 69.3837 87.3736 69.8716 87.3456 70.5063C87.3176 71.141 87.5017 71.6686 87.7458 71.6964C87.99 71.7241 88.2181 71.2084 88.2421 70.5737C88.2662 69.9391 88.09 69.3996 87.8419 69.3837Z" fill="white"/>
<path fill-rule="evenodd" clip-rule="evenodd" d="M87.842 69.6336C87.794 69.6336 87.7379 69.705 87.6859 69.8319C87.5942 70.0551 87.5453 70.2932 87.5418 70.5341V70.6412C87.5356 70.8525 87.5668 71.0633 87.6339 71.264C87.6699 71.3671 87.7139 71.4345 87.7459 71.4385C87.7459 71.4385 87.85 71.3671 87.906 71.2441C87.9934 71.0199 88.0408 70.7823 88.0461 70.542V70.4309C88.0517 70.2196 88.0205 70.009 87.9541 69.8081C87.918 69.705 87.878 69.6415 87.842 69.6376V69.6336ZM87.3377 69.5741C87.4618 69.2924 87.6379 69.1258 87.842 69.1377H87.862C88.0541 69.1615 88.2102 69.3401 88.3103 69.6138C88.4029 69.8831 88.4476 70.1663 88.4424 70.4508C88.4424 70.4865 88.4424 70.5341 88.4424 70.5856C88.4346 70.8971 88.3709 71.2047 88.2543 71.494C88.1302 71.7757 87.9541 71.9463 87.75 71.9304H87.7299C87.5378 71.9066 87.3817 71.7281 87.2817 71.4544C87.1909 71.1846 87.1463 70.9017 87.1496 70.6174C87.1496 70.5817 87.1496 70.538 87.1496 70.4825C87.1573 70.171 87.221 69.8634 87.3377 69.5741Z" fill="white"/>
<path fill-rule="evenodd" clip-rule="evenodd" d="M3.44616 69.8756C5.56659 70.9831 7.49913 72.4126 9.17367 74.1122C6.68415 73.7155 5.71555 73.3188 3.37012 72.6088L3.44616 69.8756Z" fill="#303030"/>
<path fill-rule="evenodd" clip-rule="evenodd" d="M3.8548 73.3942C4.73134 73.6917 5.09556 73.7472 5.85602 74.017C6.71255 74.3224 7.88927 74.8341 7.51304 74.9095C6.97204 74.8995 6.43433 74.8236 5.91206 74.6834C4.79538 74.4176 3.83479 73.9416 3.8548 73.3942Z" fill="#303030"/>
<path fill-rule="evenodd" clip-rule="evenodd" d="M3.57436 74.5802C5.44351 75.211 7.93704 75.9488 7.2246 76.0916C6.51217 76.2344 3.55035 75.3934 3.57436 74.5802Z" fill="#303030"/>
<path fill-rule="evenodd" clip-rule="evenodd" d="M49.7309 66.4245C46.4569 66.7061 40.3291 66.5395 37.7556 68.4832C36.6164 69.433 35.5352 70.449 34.5176 71.5258C35.3196 70.252 36.3068 69.1025 37.4474 68.1143C40.077 65.9048 46.1807 65.8969 49.6068 65.5081L49.7309 66.4245Z" fill="white"/>
<path fill-rule="evenodd" clip-rule="evenodd" d="M49.3503 65.528C51.1274 65.3852 47.9535 69.1854 47.3491 69.6733C46.8848 70.07 45.528 70.2525 44.8796 70.3635L43.7949 70.542L43.987 69.5702C43.987 69.5067 44.1631 69.4789 44.3873 69.4432C46.2884 69.1259 46.4405 67.0155 45.2878 66.7458L44.1992 66.6109L44.3072 66.1746L49.3503 65.528Z" fill="white"/>
<path fill-rule="evenodd" clip-rule="evenodd" d="M6.73633 62.1165C7.1595 62.5869 7.43736 63.168 7.53682 63.7905C7.70492 64.6314 7.85702 65.5874 8.05714 67.0036C8.05714 65.9167 8.07715 65.6866 8.0091 64.6235C7.90904 63.1478 7.6729 62.1958 7.12857 61.5016C6.9812 61.6957 6.85002 61.9013 6.73633 62.1165Z" fill="white"/>
<path fill-rule="evenodd" clip-rule="evenodd" d="M5.71191 66.0079C6.05928 66.307 6.43453 66.5726 6.8326 66.8013C6.79984 66.5312 6.79984 66.2582 6.8326 65.9881C6.8326 65.9286 6.74454 65.8453 6.62047 65.7382C5.61185 64.8655 6.5124 62.057 7.493 63.5287C7.61688 63.7013 7.75051 63.8669 7.89325 64.0245L7.74515 62.8345L6.77656 62.0689C6.18195 63.2945 5.82489 64.6199 5.72392 65.9762L5.71191 66.0079Z" fill="white"/>
<path fill-rule="evenodd" clip-rule="evenodd" d="M68.4102 54.0757C69.6081 54.0904 70.7874 54.3724 71.8603 54.9008C72.9209 55.3689 73.3932 55.956 73.5973 56.5272C73.6875 56.7829 73.7401 57.0501 73.7534 57.3206C74.0672 57.2889 74.3696 57.1871 74.638 57.0231C74.749 56.9458 74.8301 56.8334 74.8679 56.7043C74.9057 56.5752 74.898 56.4372 74.8461 56.313C74.7056 55.9939 74.5029 55.7054 74.2497 55.4641C73.5919 54.8245 72.8003 54.336 71.9309 54.033C71.0615 53.73 70.1356 53.62 69.2186 53.7108C68.9169 53.7442 68.6337 53.872 68.4102 54.0757Z" fill="white"/>
<path fill-rule="evenodd" clip-rule="evenodd" d="M39.4678 53.3934C36.0898 52.5802 37.9549 50.22 45.0432 46.753C44.727 46.753 40.7206 46.6657 40.3644 46.7966C37.0984 47.9867 34.1085 49.8312 30.6865 52.4771C30.2002 52.9302 29.6783 53.3441 29.1255 53.7148L28.6172 54.1114L55.0013 56.4638C50.2584 55.7815 42.8459 54.2106 39.4678 53.3934Z" fill="white"/>
<path fill-rule="evenodd" clip-rule="evenodd" d="M27.0642 53.445C37.8108 54.048 50.0543 55.0714 60.6848 56.6978C61.5468 56.7965 62.3985 56.9691 63.2304 57.2135L62.7581 57.1778C50.7507 56.1067 39.1196 54.9564 27.0082 54.4446C26.942 54.4415 26.877 54.4255 26.817 54.3975C26.7571 54.3695 26.7032 54.33 26.6586 54.2814C26.614 54.2328 26.5795 54.1759 26.5571 54.1141C26.5347 54.0523 26.5248 53.9867 26.5279 53.921C26.5311 53.8554 26.5472 53.791 26.5755 53.7316C26.6037 53.6721 26.6435 53.6188 26.6926 53.5746C26.7917 53.4853 26.9225 53.4387 27.0562 53.445H27.0642Z" fill="#303030"/>
<path fill-rule="evenodd" clip-rule="evenodd" d="M60.2291 58.3916C58.0718 59.185 36.6787 66.2102 33.5088 66.2102C31.7917 66.2102 16.5184 64.3062 9.99837 63.2669C9.01776 63.1082 8.72159 62.5885 8.7496 62.3188C8.36937 63.0646 8.48144 63.6993 9.87829 63.9055L18.9118 65.1947L21.4294 65.5478C23.4746 65.8334 25.5079 66.1111 27.357 66.3412C30.611 66.7735 32.7323 67.2932 34.7375 67.0829C36.4666 66.9005 41.6017 65.4129 47.0491 63.6913C53.3289 61.7079 60.005 59.4389 62.3584 58.5067C63.7993 57.9315 63.263 57.4951 61.9862 57.1619C62.0743 57.4713 61.5499 57.8879 60.2291 58.3916Z" fill="white"/>
<path fill-rule="evenodd" clip-rule="evenodd" d="M1.4929 76.1273C0.624373 77.8806 1.94118 79.0152 3.77831 79.7688C7.44055 81.2683 13.08 82.3036 18.8876 83.339C25.7798 84.5846 32.9482 85.7746 37.8792 86.6949L36.7505 86.6116C27.4848 85.6477 14.789 83.815 5.66346 81.4825C2.09327 80.5701 -1.20075 78.9319 0.428252 75.4926L1.4929 76.1273Z" fill="white"/>
<path fill-rule="evenodd" clip-rule="evenodd" d="M62.4826 82.9423L83.7317 76.1511L62.0264 84.3823L62.4826 82.9423Z" fill="white"/>
<path fill-rule="evenodd" clip-rule="evenodd" d="M61.4297 66.9719C66.1926 65.6152 83.0429 62.0609 87.1094 62.2355C77.9998 64.322 69.8989 66.3689 62.4983 68.8164L61.4297 66.9719Z" fill="white"/>
</g>
<path d="M125.476 39V13.8H130.444L134.296 28.884H134.368V13.8H137.896V39H133.828L129.076 20.604H129.004V39H125.476ZM146.599 39.36C142.711 39.36 140.695 37.056 140.695 33.024V13.8H144.655V33.312C144.655 35.112 145.411 35.76 146.671 35.76C147.931 35.76 148.687 35.112 148.687 33.312V13.8H152.503V33.024C152.503 37.056 150.487 39.36 146.599 39.36ZM160.472 39.36C156.584 39.36 154.64 37.056 154.64 33.024V31.584H158.384V33.312C158.384 35.112 159.176 35.76 160.436 35.76C161.696 35.76 162.488 35.112 162.488 33.24C162.488 31.152 161.696 29.82 159.104 27.552C155.792 24.636 154.712 22.584 154.712 19.704C154.712 15.744 156.764 13.44 160.616 13.44C164.468 13.44 166.376 15.744 166.376 19.776V20.82H162.632V19.524C162.632 17.724 161.912 17.04 160.652 17.04C159.392 17.04 158.672 17.724 158.672 19.452C158.672 21.288 159.5 22.62 162.092 24.888C165.404 27.804 166.448 29.82 166.448 32.952C166.448 37.056 164.36 39.36 160.472 39.36ZM167.569 39L171.673 13.8H177.037L181.141 39H177.181L176.461 33.996V34.068H171.961L171.241 39H167.569ZM172.429 30.648H175.993L174.229 18.192H174.157L172.429 30.648ZM125.476 71V45.8H129.436V56.42L134.476 45.8H138.436L133.72 55.052L138.508 71H134.368L131.02 59.768L129.436 62.972V71H125.476ZM140.382 71V45.8H151.182V49.4H144.342V56.06H149.778V59.66H144.342V67.4H151.182V71H140.382ZM153.46 71V45.8H158.428L162.28 60.884H162.352V45.8H165.88V71H161.812L157.06 52.604H156.988V71H153.46ZM168.824 71V45.8H174.872C178.832 45.8 180.776 47.996 180.776 52.028V64.772C180.776 68.804 178.832 71 174.872 71H168.824ZM172.784 67.4H174.8C176.06 67.4 176.816 66.752 176.816 64.952V51.848C176.816 50.048 176.06 49.4 174.8 49.4H172.784V67.4ZM182.334 71L186.438 45.8H191.802L195.906 71H191.946L191.226 65.996V66.068H186.726L186.006 71H182.334ZM187.194 62.648H190.758L188.994 50.192H188.922L187.194 62.648ZM197.828 71V45.8H201.788V67.4H208.304V71H197.828ZM209.299 71L213.403 45.8H218.767L222.871 71H218.911L218.191 65.996V66.068H213.691L212.971 71H209.299ZM214.159 62.648H217.723L215.959 50.192H215.887L214.159 62.648Z" fill="#303030"/>
<path d="M124.84 96V86.2H128.074C128.601 86.2 129.075 86.3283 129.495 86.585C129.92 86.8417 130.256 87.1893 130.503 87.628C130.755 88.062 130.881 88.5473 130.881 89.084C130.881 89.63 130.753 90.1223 130.496 90.561C130.244 90.995 129.903 91.3403 129.474 91.597C129.049 91.849 128.583 91.975 128.074 91.975H126.016V96H124.84ZM126.016 90.799H127.969C128.286 90.799 128.576 90.722 128.837 90.568C129.103 90.4093 129.313 90.197 129.467 89.931C129.626 89.6603 129.705 89.357 129.705 89.021C129.705 88.6803 129.626 88.377 129.467 88.111C129.313 87.8403 129.103 87.628 128.837 87.474C128.576 87.3153 128.286 87.236 127.969 87.236H126.016V90.799ZM134.77 96.182C134.126 96.182 133.538 96.0163 133.006 95.685C132.478 95.3537 132.056 94.9103 131.739 94.355C131.426 93.795 131.27 93.1767 131.27 92.5C131.27 91.9867 131.361 91.5083 131.543 91.065C131.725 90.617 131.974 90.225 132.292 89.889C132.614 89.5483 132.987 89.2823 133.412 89.091C133.836 88.8997 134.289 88.804 134.77 88.804C135.297 88.804 135.78 88.9113 136.219 89.126C136.662 89.336 137.04 89.63 137.353 90.008C137.67 90.386 137.906 90.8247 138.06 91.324C138.218 91.8233 138.277 92.3577 138.235 92.927H132.523C132.579 93.3237 132.709 93.6783 132.915 93.991C133.12 94.299 133.381 94.544 133.699 94.726C134.021 94.908 134.378 95.0013 134.77 95.006C135.19 95.006 135.57 94.8987 135.911 94.684C136.251 94.4647 136.527 94.166 136.737 93.788L137.934 94.068C137.654 94.6887 137.231 95.1973 136.667 95.594C136.102 95.986 135.47 96.182 134.77 96.182ZM132.488 92.003H137.052C137.014 91.611 136.888 91.254 136.674 90.932C136.459 90.6053 136.186 90.344 135.855 90.148C135.523 89.952 135.162 89.854 134.77 89.854C134.378 89.854 134.018 89.9497 133.692 90.141C133.365 90.3323 133.094 90.5913 132.88 90.918C132.67 91.24 132.539 91.6017 132.488 92.003ZM145.602 91.646V96H144.426V91.905C144.426 91.5503 144.34 91.2283 144.167 90.939C143.995 90.6497 143.764 90.421 143.474 90.253C143.185 90.0803 142.863 89.994 142.508 89.994C142.158 89.994 141.836 90.0803 141.542 90.253C141.253 90.421 141.022 90.6497 140.849 90.939C140.677 91.2283 140.59 91.5503 140.59 91.905V96H139.414V89H140.59V89.875C140.838 89.5483 141.15 89.2893 141.528 89.098C141.906 88.902 142.317 88.804 142.76 88.804C143.283 88.804 143.759 88.9323 144.188 89.189C144.622 89.441 144.965 89.7817 145.217 90.211C145.474 90.6403 145.602 91.1187 145.602 91.646ZM151.578 89H152.824L148.995 99.5H147.749L149.016 96L146.503 89H147.791L149.604 94.383L151.578 89ZM156.809 96.182C156.165 96.182 155.577 96.0163 155.045 95.685C154.517 95.3537 154.095 94.9103 153.778 94.355C153.465 93.795 153.309 93.1767 153.309 92.5C153.309 91.9867 153.4 91.5083 153.582 91.065C153.764 90.617 154.013 90.225 154.331 89.889C154.653 89.5483 155.026 89.2823 155.451 89.091C155.875 88.8997 156.328 88.804 156.809 88.804C157.336 88.804 157.819 88.9113 158.258 89.126C158.701 89.336 159.079 89.63 159.392 90.008C159.709 90.386 159.945 90.8247 160.099 91.324C160.257 91.8233 160.316 92.3577 160.274 92.927H154.562C154.618 93.3237 154.748 93.6783 154.954 93.991C155.159 94.299 155.42 94.544 155.738 94.726C156.06 94.908 156.417 95.0013 156.809 95.006C157.229 95.006 157.609 94.8987 157.95 94.684C158.29 94.4647 158.566 94.166 158.776 93.788L159.973 94.068C159.693 94.6887 159.27 95.1973 158.706 95.594C158.141 95.986 157.509 96.182 156.809 96.182ZM154.527 92.003H159.091C159.053 91.611 158.927 91.254 158.713 90.932C158.498 90.6053 158.225 90.344 157.894 90.148C157.562 89.952 157.201 89.854 156.809 89.854C156.417 89.854 156.057 89.9497 155.731 90.141C155.404 90.3323 155.133 90.5913 154.919 90.918C154.709 91.24 154.578 91.6017 154.527 92.003ZM164.267 96H163.078L160.733 89H161.881L163.687 94.341L165.472 89H166.683L168.475 94.341L170.26 89H171.422L169.077 96H167.88L166.067 90.61L164.267 96ZM177.909 89H179.085V96H177.909L177.86 94.817C177.641 95.223 177.338 95.552 176.95 95.804C176.568 96.056 176.11 96.182 175.578 96.182C175.065 96.182 174.584 96.0863 174.136 95.895C173.688 95.699 173.292 95.4307 172.946 95.09C172.606 94.7447 172.34 94.348 172.148 93.9C171.957 93.452 171.861 92.969 171.861 92.451C171.861 91.9517 171.955 91.4803 172.141 91.037C172.328 90.5937 172.587 90.2063 172.918 89.875C173.254 89.539 173.642 89.2777 174.08 89.091C174.519 88.8997 174.99 88.804 175.494 88.804C176.045 88.804 176.528 88.9347 176.943 89.196C177.359 89.4527 177.695 89.7863 177.951 90.197L177.909 89ZM175.557 95.041C176.019 95.041 176.418 94.929 176.754 94.705C177.095 94.4763 177.356 94.1683 177.538 93.781C177.725 93.3937 177.818 92.9667 177.818 92.5C177.818 92.024 177.725 91.5947 177.538 91.212C177.352 90.8247 177.088 90.519 176.747 90.295C176.411 90.0663 176.015 89.952 175.557 89.952C175.095 89.952 174.675 90.0663 174.297 90.295C173.919 90.5237 173.618 90.8317 173.394 91.219C173.175 91.6017 173.065 92.0287 173.065 92.5C173.065 92.9713 173.18 93.4007 173.408 93.788C173.637 94.1707 173.94 94.4763 174.318 94.705C174.696 94.929 175.109 95.041 175.557 95.041ZM185.976 89H187.152V96H185.976L185.927 94.817C185.707 95.223 185.404 95.552 185.017 95.804C184.634 96.056 184.177 96.182 183.645 96.182C183.131 96.182 182.651 96.0863 182.203 95.895C181.755 95.699 181.358 95.4307 181.013 95.09C180.672 94.7447 180.406 94.348 180.215 93.9C180.023 93.452 179.928 92.969 179.928 92.451C179.928 91.9517 180.021 91.4803 180.208 91.037C180.394 90.5937 180.653 90.2063 180.985 89.875C181.321 89.539 181.708 89.2777 182.147 89.091C182.585 88.8997 183.057 88.804 183.561 88.804C184.111 88.804 184.594 88.9347 185.01 89.196C185.425 89.4527 185.761 89.7863 186.018 90.197L185.976 89ZM183.624 95.041C184.086 95.041 184.485 94.929 184.821 94.705C185.161 94.4763 185.423 94.1683 185.605 93.781C185.791 93.3937 185.885 92.9667 185.885 92.5C185.885 92.024 185.791 91.5947 185.605 91.212C185.418 90.8247 185.154 90.519 184.814 90.295C184.478 90.0663 184.081 89.952 183.624 89.952C183.162 89.952 182.742 90.0663 182.364 90.295C181.986 90.5237 181.685 90.8317 181.461 91.219C181.241 91.6017 181.132 92.0287 181.132 92.5C181.132 92.9713 181.246 93.4007 181.475 93.788C181.703 94.1707 182.007 94.4763 182.385 94.705C182.763 94.929 183.176 95.041 183.624 95.041ZM194.739 91.646V96H193.563V91.905C193.563 91.5503 193.477 91.2283 193.304 90.939C193.131 90.6497 192.9 90.421 192.611 90.253C192.322 90.0803 192 89.994 191.645 89.994C191.295 89.994 190.973 90.0803 190.679 90.253C190.39 90.421 190.159 90.6497 189.986 90.939C189.813 91.2283 189.727 91.5503 189.727 91.905V96H188.551V89H189.727V89.875C189.974 89.5483 190.287 89.2893 190.665 89.098C191.043 88.902 191.454 88.804 191.897 88.804C192.42 88.804 192.896 88.9323 193.325 89.189C193.759 89.441 194.102 89.7817 194.354 90.211C194.611 90.6403 194.739 91.1187 194.739 91.646ZM206.026 96H204.507L201.413 91.751L200.678 92.633V96H199.502V86.2H200.678V90.806L204.535 86.2H206.068L202.183 90.827L206.026 96ZM209.719 96.182C209.075 96.182 208.487 96.0163 207.955 95.685C207.427 95.3537 207.005 94.9103 206.688 94.355C206.375 93.795 206.219 93.1767 206.219 92.5C206.219 91.9867 206.31 91.5083 206.492 91.065C206.674 90.617 206.923 90.225 207.241 89.889C207.563 89.5483 207.936 89.2823 208.361 89.091C208.785 88.8997 209.238 88.804 209.719 88.804C210.246 88.804 210.729 88.9113 211.168 89.126C211.611 89.336 211.989 89.63 212.302 90.008C212.619 90.386 212.855 90.8247 213.009 91.324C213.167 91.8233 213.226 92.3577 213.184 92.927H207.472C207.528 93.3237 207.658 93.6783 207.864 93.991C208.069 94.299 208.33 94.544 208.648 94.726C208.97 94.908 209.327 95.0013 209.719 95.006C210.139 95.006 210.519 94.8987 210.86 94.684C211.2 94.4647 211.476 94.166 211.686 93.788L212.883 94.068C212.603 94.6887 212.18 95.1973 211.616 95.594C211.051 95.986 210.419 96.182 209.719 96.182ZM207.437 92.003H212.001C211.963 91.611 211.837 91.254 211.623 90.932C211.408 90.6053 211.135 90.344 210.804 90.148C210.472 89.952 210.111 89.854 209.719 89.854C209.327 89.854 208.967 89.9497 208.641 90.141C208.314 90.3323 208.043 90.5913 207.829 90.918C207.619 91.24 207.488 91.6017 207.437 92.003ZM220.551 91.646V96H219.375V91.905C219.375 91.5503 219.289 91.2283 219.116 90.939C218.944 90.6497 218.713 90.421 218.423 90.253C218.134 90.0803 217.812 89.994 217.457 89.994C217.107 89.994 216.785 90.0803 216.491 90.253C216.202 90.421 215.971 90.6497 215.798 90.939C215.626 91.2283 215.539 91.5503 215.539 91.905V96H214.363V89H215.539V89.875C215.787 89.5483 216.099 89.2893 216.477 89.098C216.855 88.902 217.266 88.804 217.709 88.804C218.232 88.804 218.708 88.9323 219.137 89.189C219.571 89.441 219.914 89.7817 220.166 90.211C220.423 90.6403 220.551 91.1187 220.551 91.646ZM227.45 85.5H228.626V96H227.45V94.81C227.212 95.2207 226.892 95.552 226.491 95.804C226.089 96.056 225.618 96.182 225.077 96.182C224.568 96.182 224.092 96.0863 223.649 95.895C223.205 95.7037 222.813 95.44 222.473 95.104C222.137 94.7633 221.873 94.3713 221.682 93.928C221.49 93.4847 221.395 93.0087 221.395 92.5C221.395 91.9913 221.49 91.5153 221.682 91.072C221.873 90.624 222.137 90.232 222.473 89.896C222.813 89.5553 223.205 89.2893 223.649 89.098C224.092 88.9067 224.568 88.811 225.077 88.811C225.618 88.811 226.089 88.937 226.491 89.189C226.892 89.441 227.212 89.7723 227.45 90.183V85.5ZM225.091 95.041C225.553 95.041 225.952 94.929 226.288 94.705C226.628 94.4763 226.89 94.1683 227.072 93.781C227.258 93.3937 227.352 92.9667 227.352 92.5C227.352 92.024 227.258 91.5947 227.072 91.212C226.885 90.8247 226.621 90.519 226.281 90.295C225.945 90.0663 225.548 89.952 225.091 89.952C224.629 89.952 224.209 90.0663 223.831 90.295C223.457 90.5237 223.159 90.8317 222.935 91.219C222.711 91.6017 222.599 92.0287 222.599 92.5C222.599 92.9713 222.713 93.4007 222.942 93.788C223.17 94.1707 223.474 94.4763 223.852 94.705C224.23 94.929 224.643 95.041 225.091 95.041ZM235.864 89H237.04V96H235.864L235.815 94.817C235.596 95.223 235.293 95.552 234.905 95.804C234.523 96.056 234.065 96.182 233.533 96.182C233.02 96.182 232.539 96.0863 232.091 95.895C231.643 95.699 231.247 95.4307 230.901 95.09C230.561 94.7447 230.295 94.348 230.103 93.9C229.912 93.452 229.816 92.969 229.816 92.451C229.816 91.9517 229.91 91.4803 230.096 91.037C230.283 90.5937 230.542 90.2063 230.873 89.875C231.209 89.539 231.597 89.2777 232.035 89.091C232.474 88.8997 232.945 88.804 233.449 88.804C234 88.804 234.483 88.9347 234.898 89.196C235.314 89.4527 235.65 89.7863 235.906 90.197L235.864 89ZM233.512 95.041C233.974 95.041 234.373 94.929 234.709 94.705C235.05 94.4763 235.311 94.1683 235.493 93.781C235.68 93.3937 235.773 92.9667 235.773 92.5C235.773 92.024 235.68 91.5947 235.493 91.212C235.307 90.8247 235.043 90.519 234.702 90.295C234.366 90.0663 233.97 89.952 233.512 89.952C233.05 89.952 232.63 90.0663 232.252 90.295C231.874 90.5237 231.573 90.8317 231.349 91.219C231.13 91.6017 231.02 92.0287 231.02 92.5C231.02 92.9713 231.135 93.4007 231.363 93.788C231.592 94.1707 231.895 94.4763 232.273 94.705C232.651 94.929 233.064 95.041 233.512 95.041ZM238.44 96V89H239.616V89.875C239.863 89.5483 240.176 89.2893 240.554 89.098C240.932 88.902 241.342 88.804 241.786 88.804C242.056 88.804 242.318 88.839 242.57 88.909L242.094 90.085C241.902 90.0243 241.716 89.994 241.534 89.994C241.184 89.994 240.862 90.0803 240.568 90.253C240.278 90.421 240.047 90.6497 239.875 90.939C239.702 91.2283 239.616 91.5503 239.616 91.905V96H238.44ZM248.702 89H249.878V96H248.702L248.653 94.817C248.434 95.223 248.131 95.552 247.743 95.804C247.361 96.056 246.903 96.182 246.371 96.182C245.858 96.182 245.377 96.0863 244.929 95.895C244.481 95.699 244.085 95.4307 243.739 95.09C243.399 94.7447 243.133 94.348 242.941 93.9C242.75 93.452 242.654 92.969 242.654 92.451C242.654 91.9517 242.748 91.4803 242.934 91.037C243.121 90.5937 243.38 90.2063 243.711 89.875C244.047 89.539 244.435 89.2777 244.873 89.091C245.312 88.8997 245.783 88.804 246.287 88.804C246.838 88.804 247.321 88.9347 247.736 89.196C248.152 89.4527 248.488 89.7863 248.744 90.197L248.702 89ZM246.35 95.041C246.812 95.041 247.211 94.929 247.547 94.705C247.888 94.4763 248.149 94.1683 248.331 93.781C248.518 93.3937 248.611 92.9667 248.611 92.5C248.611 92.024 248.518 91.5947 248.331 91.212C248.145 90.8247 247.881 90.519 247.54 90.295C247.204 90.0663 246.808 89.952 246.35 89.952C245.888 89.952 245.468 90.0663 245.09 90.295C244.712 90.5237 244.411 90.8317 244.187 91.219C243.968 91.6017 243.858 92.0287 243.858 92.5C243.858 92.9713 243.973 93.4007 244.201 93.788C244.43 94.1707 244.733 94.4763 245.111 94.705C245.489 94.929 245.902 95.041 246.35 95.041ZM256.769 89H257.945V96H256.769L256.72 94.817C256.5 95.223 256.197 95.552 255.81 95.804C255.427 96.056 254.97 96.182 254.438 96.182C253.924 96.182 253.444 96.0863 252.996 95.895C252.548 95.699 252.151 95.4307 251.806 95.09C251.465 94.7447 251.199 94.348 251.008 93.9C250.816 93.452 250.721 92.969 250.721 92.451C250.721 91.9517 250.814 91.4803 251.001 91.037C251.187 90.5937 251.446 90.2063 251.778 89.875C252.114 89.539 252.501 89.2777 252.94 89.091C253.378 88.8997 253.85 88.804 254.354 88.804C254.904 88.804 255.387 88.9347 255.803 89.196C256.218 89.4527 256.554 89.7863 256.811 90.197L256.769 89ZM254.417 95.041C254.879 95.041 255.278 94.929 255.614 94.705C255.954 94.4763 256.216 94.1683 256.398 93.781C256.584 93.3937 256.678 92.9667 256.678 92.5C256.678 92.024 256.584 91.5947 256.398 91.212C256.211 90.8247 255.947 90.519 255.607 90.295C255.271 90.0663 254.874 89.952 254.417 89.952C253.955 89.952 253.535 90.0663 253.157 90.295C252.779 90.5237 252.478 90.8317 252.254 91.219C252.034 91.6017 251.925 92.0287 251.925 92.5C251.925 92.9713 252.039 93.4007 252.268 93.788C252.496 94.1707 252.8 94.4763 253.178 94.705C253.556 94.929 253.969 95.041 254.417 95.041ZM265.532 91.646V96H264.356V91.905C264.356 91.5503 264.27 91.2283 264.097 90.939C263.924 90.6497 263.693 90.421 263.404 90.253C263.115 90.0803 262.793 89.994 262.438 89.994C262.088 89.994 261.766 90.0803 261.472 90.253C261.183 90.421 260.952 90.6497 260.779 90.939C260.606 91.2283 260.52 91.5503 260.52 91.905V96H259.344V89H260.52V89.875C260.767 89.5483 261.08 89.2893 261.458 89.098C261.836 88.902 262.247 88.804 262.69 88.804C263.213 88.804 263.689 88.9323 264.118 89.189C264.552 89.441 264.895 89.7817 265.147 90.211C265.404 90.6403 265.532 91.1187 265.532 91.646ZM276.819 96H275.3L272.206 91.751L271.471 92.633V96H270.295V86.2H271.471V90.806L275.328 86.2H276.861L272.976 90.827L276.819 96ZM283.06 89H284.236V96H283.06L283.011 94.817C282.791 95.223 282.488 95.552 282.101 95.804C281.718 96.056 281.261 96.182 280.729 96.182C280.215 96.182 279.735 96.0863 279.287 95.895C278.839 95.699 278.442 95.4307 278.097 95.09C277.756 94.7447 277.49 94.348 277.299 93.9C277.107 93.452 277.012 92.969 277.012 92.451C277.012 91.9517 277.105 91.4803 277.292 91.037C277.478 90.5937 277.737 90.2063 278.069 89.875C278.405 89.539 278.792 89.2777 279.231 89.091C279.669 88.8997 280.141 88.804 280.645 88.804C281.195 88.804 281.678 88.9347 282.094 89.196C282.509 89.4527 282.845 89.7863 283.102 90.197L283.06 89ZM280.708 95.041C281.17 95.041 281.569 94.929 281.905 94.705C282.245 94.4763 282.507 94.1683 282.689 93.781C282.875 93.3937 282.969 92.9667 282.969 92.5C282.969 92.024 282.875 91.5947 282.689 91.212C282.502 90.8247 282.238 90.519 281.898 90.295C281.562 90.0663 281.165 89.952 280.708 89.952C280.246 89.952 279.826 90.0663 279.448 90.295C279.07 90.5237 278.769 90.8317 278.545 91.219C278.325 91.6017 278.216 92.0287 278.216 92.5C278.216 92.9713 278.33 93.4007 278.559 93.788C278.787 94.1707 279.091 94.4763 279.469 94.705C279.847 94.929 280.26 95.041 280.708 95.041ZM285.635 96V89H286.811V89.875C287.058 89.5483 287.369 89.2893 287.742 89.098C288.12 88.902 288.531 88.804 288.974 88.804C289.492 88.804 289.966 88.93 290.395 89.182C290.824 89.434 291.163 89.7677 291.41 90.183C291.657 89.7677 291.993 89.434 292.418 89.182C292.847 88.93 293.319 88.804 293.832 88.804C294.359 88.804 294.838 88.9323 295.267 89.189C295.696 89.441 296.037 89.7817 296.289 90.211C296.546 90.6403 296.674 91.1187 296.674 91.646V96H295.498V91.926C295.498 91.5807 295.414 91.261 295.246 90.967C295.078 90.673 294.852 90.4373 294.567 90.26C294.282 90.0827 293.967 89.994 293.622 89.994C293.277 89.994 292.962 90.078 292.677 90.246C292.392 90.4093 292.166 90.638 291.998 90.932C291.83 91.2213 291.746 91.5527 291.746 91.926V96H290.57V91.926C290.57 91.5527 290.486 91.2213 290.318 90.932C290.15 90.638 289.921 90.4093 289.632 90.246C289.347 90.078 289.032 89.994 288.687 89.994C288.346 89.994 288.031 90.0827 287.742 90.26C287.457 90.4373 287.231 90.673 287.063 90.967C286.895 91.261 286.811 91.5807 286.811 91.926V96H285.635ZM297.796 93.34V89H298.972V93.081C298.972 93.4357 299.059 93.7577 299.231 94.047C299.404 94.3363 299.635 94.5673 299.924 94.74C300.218 94.908 300.54 94.992 300.89 94.992C301.245 94.992 301.565 94.908 301.849 94.74C302.139 94.5673 302.37 94.3363 302.542 94.047C302.715 93.7577 302.801 93.4357 302.801 93.081V89H303.977L303.984 96H302.808L302.801 95.111C302.554 95.4377 302.241 95.699 301.863 95.895C301.485 96.0863 301.077 96.182 300.638 96.182C300.116 96.182 299.637 96.056 299.203 95.804C298.774 95.5473 298.431 95.2043 298.174 94.775C297.922 94.3457 297.796 93.8673 297.796 93.34ZM305.251 93.06V86.2H306.266V93.06H305.251ZM305.762 96.182C305.58 96.182 305.426 96.119 305.3 95.993C305.174 95.867 305.111 95.713 305.111 95.531C305.111 95.3537 305.174 95.2043 305.3 95.083C305.426 94.957 305.58 94.894 305.762 94.894C305.934 94.894 306.081 94.957 306.203 95.083C306.329 95.2043 306.392 95.3537 306.392 95.531C306.392 95.713 306.329 95.867 306.203 95.993C306.081 96.119 305.934 96.182 305.762 96.182Z" fill="#E25C27"/>
<defs>
<clipPath id="clip0_1888_3017">
<rect width="98" height="110" fill="white"/>
</clipPath>
</defs>
</svg>
