<svg width="10" height="10" viewBox="0 0 10 10" fill="none" xmlns="http://www.w3.org/2000/svg">
<g clip-path="url(#clip0_2262_11466)">
<path d="M2.75166 -0.011694C2.57508 0.0344448 2.41658 0.108 2.2988 0.256695C2.10141 0.505834 2.09727 0.86764 2.29621 1.1172C2.33471 1.1655 2.37727 1.21092 2.42099 1.25464C3.63838 2.47253 4.8561 3.69006 6.0741 4.90731C6.10158 4.93475 6.13277 4.95847 6.1968 5.01378C6.14785 5.04256 6.10796 5.05633 6.08108 5.08317C4.85313 6.30895 3.62685 7.53636 2.39894 8.76217C2.18246 8.97828 2.09185 9.22564 2.18463 9.52608C2.32255 9.97264 2.89241 10.1539 3.26252 9.86867C3.30374 9.83692 3.34321 9.80231 3.38002 9.76553C4.79171 8.35453 6.20319 6.94333 7.61419 5.53161C7.87788 5.26778 7.93191 4.93989 7.7566 4.64231C7.71424 4.57042 7.65505 4.5065 7.59555 4.44695C6.22199 3.07158 4.84655 1.69814 3.47402 0.321778C3.32191 0.16925 3.16497 0.0331669 2.94735 -0.0117502C2.88213 -0.0116949 2.81688 -0.011694 2.75166 -0.011694Z" fill="white"/>
</g>
<defs>
<clipPath id="clip0_2262_11466">
<rect width="10" height="10" fill="white" transform="matrix(1 0 0 -1 0 10)"/>
</clipPath>
</defs>
</svg>
