<svg width="15" height="15" viewBox="0 0 15 15" fill="none" xmlns="http://www.w3.org/2000/svg">
<g clip-path="url(#clip0_2273_254)">
<path d="M7.20497 15.0218C6.98512 14.9546 6.85203 14.7939 6.73107 14.609C6.09909 13.6424 5.32188 12.7939 4.54651 11.9439C3.91968 11.2568 3.29504 10.5671 2.75938 9.80457C2.14468 8.92884 1.70166 7.9792 1.5399 6.91376C1.39982 5.99023 1.47298 5.08031 1.75423 4.18987C2.10975 3.06413 2.7535 2.12626 3.66049 1.37443C4.52299 0.659352 5.51416 0.215234 6.62813 0.0608221C8.15607 -0.150943 9.57703 0.154205 10.8542 1.01597C12.1704 1.90384 13.023 3.13178 13.3759 4.68472C13.6498 5.88987 13.5535 7.07259 13.1013 8.22553C12.7101 9.22332 12.0921 10.0774 11.3961 10.8777C10.7156 11.6608 10.0068 12.42 9.33365 13.209C8.9535 13.6546 8.61379 14.1355 8.26857 14.6097C8.13916 14.7877 8.01269 14.9542 7.79321 15.0211C7.59725 15.0219 7.40129 15.0218 7.20497 15.0218ZM7.49394 13.6402C7.69872 13.3715 7.87519 13.1127 8.07924 12.8777C8.86269 11.9766 9.65938 11.0869 10.4428 10.1862C11.0546 9.48325 11.62 8.74722 11.9767 7.87442C12.4267 6.77222 12.4789 5.64943 12.1112 4.52001C11.7278 3.34281 10.9877 2.43729 9.91306 1.81707C8.84688 1.202 7.69946 1.02332 6.49762 1.27626C5.2785 1.53288 4.29173 2.17443 3.56784 3.18729C2.69247 4.41193 2.44615 5.76817 2.80607 7.22773C3.00938 8.0531 3.42446 8.77957 3.95019 9.43803C4.38953 9.98803 4.85277 10.52 5.32225 11.045C6.06894 11.8799 6.83438 12.6991 7.49394 13.6402Z" fill="#303030"/>
<path d="M7.53303 2.3418C9.28082 2.37195 10.7529 3.58408 11.1018 5.28812C11.2224 5.87746 11.1966 6.46496 11.026 7.04364C10.9323 7.36165 10.6264 7.5418 10.3194 7.4657C10.0088 7.38886 9.82641 7.09695 9.88487 6.7679C9.91648 6.59033 9.96023 6.41386 9.97935 6.23481C10.0926 5.17599 9.49259 4.1668 8.49185 3.72121C7.53707 3.29621 6.36759 3.54033 5.66538 4.32305C5.02494 5.03702 4.83009 5.87011 5.12751 6.77746C5.42825 7.69511 6.08523 8.25393 7.0345 8.45944C7.42641 8.54437 7.81281 8.49364 8.19921 8.41055C8.54001 8.33739 8.83597 8.5179 8.91281 8.83261C8.99222 9.15687 8.80987 9.45283 8.47089 9.54915C6.68597 10.0576 4.71795 9.06275 4.07053 7.32562C3.37457 5.45724 4.22126 3.44584 6.0459 2.6418C6.51832 2.43371 7.01722 2.34143 7.53303 2.3418Z" fill="#303030"/>
</g>
<defs>
<clipPath id="clip0_2273_254">
<rect width="15" height="15" fill="white"/>
</clipPath>
</defs>
</svg>
